# xmcd CD database file
#
# Track frame offsets:
#	150
#	24602
#	49357
#
# Disc length: 982 seconds
#
# Revision: 0
# Processed by: cddbd v1.5.1PL0 Copyright (c) Steve Scherf et al.
# Submitted via: CDex 1.51
#
DISCID=2203d403
DTITLE=TO BE CONTINUED - TRUTH
DYEAR=1995
DGENRE=JPop
TTITLE0=TRUTH
TTITLE1=Funny!? Serious?!
TTITLE2=TRUTH(Backing Track)
EXTD=YEAR: 1995
EXTT0=
EXTT1=
EXTT2=
PLAYORDER=
